<?xml version="1.0" standalone="no"?>
<!DOCTYPE svg PUBLIC "-//W3C//DTD SVG 20010904//EN"
 "http://www.w3.org/TR/2001/REC-SVG-20010904/DTD/svg10.dtd">
<svg version="1.0" xmlns="http://www.w3.org/2000/svg"
 width="298.000000pt" height="169.000000pt" viewBox="0 0 298.000000 169.000000"
 preserveAspectRatio="xMidYMid meet">

<g transform="translate(0.000000,169.000000) scale(0.100000,-0.100000)"
fill="#000000" stroke="none">
<path d="M1374 1680 c-185 -26 -352 -110 -481 -242 -107 -109 -157 -190 -202
-324 -75 -222 -59 -438 46 -649 109 -218 318 -383 560 -442 102 -24 296 -22
399 5 166 44 287 116 406 240 128 134 204 296 229 488 24 187 -38 423 -152
579 -82 112 -223 227 -343 280 -129 57 -324 85 -462 65z m66 -275 l0 -165
-141 0 -140 0 7 23 c32 105 138 247 213 287 62 33 61 36 61 -145z m158 146
c76 -39 183 -182 216 -288 l7 -23 -140 0 -141 0 0 165 c0 108 4 165 10 165 6
0 28 -9 48 -19z m-458 -99 c-17 -26 -46 -83 -65 -127 l-34 -80 -87 -3 -86 -3
23 33 c40 57 133 145 199 187 35 23 67 41 71 41 5 0 -5 -21 -21 -48z m750 7
c66 -42 159 -130 199 -186 l22 -33 -86 0 c-80 0 -87 2 -92 21 -9 31 -81 178
-104 210 -28 39 -14 36 61 -12z m-884 -361 c-4 -18 -10 -70 -13 -115 l-6 -83
-113 0 -114 0 0 28 c0 30 24 131 41 175 11 27 12 27 111 27 l101 0 -7 -32z
m432 -85 l3 -113 -174 0 -175 0 5 48 c2 26 9 77 15 115 l10 67 156 -2 157 -3
3 -112z m430 45 c6 -40 13 -92 16 -115 l4 -43 -174 0 -174 0 0 108 c0 60 3
112 7 115 3 4 75 7 158 7 l152 0 11 -72z m311 46 c16 -36 41 -142 41 -177 l0
-28 -112 3 -113 3 -6 71 c-4 39 -10 89 -14 112 l-7 42 100 0 c97 0 99 0 111
-26z m-1188 -390 c4 -39 10 -89 14 -112 l7 -42 -100 0 c-97 0 -99 0 -111 26
-16 36 -41 142 -41 177 l0 28 113 -3 112 -3 6 -71z m447 -36 l-3 -113 -157 -3
-156 -2 -10 67 c-6 38 -13 89 -16 116 l-6 47 176 0 175 0 -3 -112z m445 65
c-2 -27 -9 -78 -15 -116 l-10 -67 -156 2 -157 3 -3 113 -3 112 174 0 175 0 -5
-47z m337 19 c0 -30 -24 -131 -41 -174 -11 -28 -12 -28 -111 -28 l-100 0 6 33
c4 17 10 69 13 115 l6 82 113 0 114 0 0 -28z m-1145 -397 c19 -44 48 -101 65
-127 16 -27 26 -48 21 -48 -4 0 -36 18 -71 41 -66 42 -159 130 -199 187 l-23
33 86 -3 87 -3 34 -80z m365 -80 c0 -108 -4 -165 -10 -165 -28 0 -92 44 -141
97 -48 52 -104 147 -123 211 l-7 22 140 0 141 0 0 -165z m374 143 c-19 -64
-75 -159 -123 -211 -49 -53 -113 -97 -141 -97 -6 0 -10 57 -10 165 l0 165 141
0 140 0 -7 -22z m275 -10 c-40 -57 -133 -145 -199 -187 -75 -49 -89 -51 -60
-11 19 27 88 169 103 213 5 14 19 17 92 17 l86 0 -22 -32z"/>
</g>
</svg>
