<?xml version="1.0" standalone="no"?>
<!DOCTYPE svg PUBLIC "-//W3C//DTD SVG 20010904//EN"
 "http://www.w3.org/TR/2001/REC-SVG-20010904/DTD/svg10.dtd">
<svg version="1.0" xmlns="http://www.w3.org/2000/svg"
 width="225.000000pt" height="225.000000pt" viewBox="0 0 225.000000 225.000000"
 preserveAspectRatio="xMidYMid meet">

<g transform="translate(0.000000,225.000000) scale(0.100000,-0.100000)"
fill="#000000" stroke="none">
<path d="M485 2043 c-16 -8 -41 -25 -54 -37 -52 -47 -51 -26 -51 -880 0 -539
3 -804 11 -823 14 -38 46 -71 91 -94 35 -18 67 -19 643 -19 585 0 607 1 645
20 21 11 51 36 67 57 l28 36 3 571 2 571 -308 308 -308 307 -369 0 c-318 -1
-374 -3 -400 -17z m1195 -635 c0 -5 -103 -8 -230 -8 l-230 0 0 237 0 238 230
-230 c127 -126 230 -233 230 -237z m-824 -484 c21 -10 40 -31 54 -58 29 -60
27 -66 -25 -66 -37 0 -45 3 -45 18 0 42 -61 58 -80 21 -20 -37 -4 -63 61 -100
79 -44 102 -74 103 -137 2 -85 -43 -132 -126 -132 -74 0 -138 57 -138 125 0
22 4 25 39 25 35 0 39 -3 45 -30 6 -34 39 -52 71 -40 15 6 20 16 20 46 0 36
-3 40 -65 75 -76 43 -100 76 -100 141 0 98 94 155 186 112z m659 2 c41 -18 65
-52 72 -106 l6 -41 -39 3 c-30 2 -40 8 -42 23 -10 52 -64 72 -98 34 -14 -16
-19 -40 -22 -113 -6 -144 15 -185 89 -174 20 2 24 10 27 45 3 39 1 42 -25 45
-24 3 -28 8 -31 41 l-3 37 71 0 71 0 -3 -101 c-3 -98 -4 -103 -30 -122 -18
-14 -48 -22 -85 -25 -48 -3 -64 0 -93 20 -57 38 -70 76 -70 208 0 100 3 122
23 160 35 71 107 97 182 66z m-455 -53 c7 -32 22 -105 34 -163 l22 -104 21 99
c12 55 27 128 34 163 l13 62 49 0 c38 0 48 -3 44 -14 -3 -7 -26 -94 -52 -192
-25 -99 -51 -196 -56 -216 -9 -37 -11 -38 -53 -38 l-43 0 -56 219 c-32 120
-57 223 -57 230 0 6 18 11 44 11 l45 0 11 -57z"/>
</g>
</svg>
