<?xml version="1.0" standalone="no"?>
<!DOCTYPE svg PUBLIC "-//W3C//DTD SVG 20010904//EN"
 "http://www.w3.org/TR/2001/REC-SVG-20010904/DTD/svg10.dtd">
<svg version="1.0" xmlns="http://www.w3.org/2000/svg"
 width="305.000000pt" height="165.000000pt" viewBox="0 0 305.000000 165.000000"
 preserveAspectRatio="xMidYMid meet">

<g transform="translate(0.000000,165.000000) scale(0.100000,-0.100000)"
fill="#000000" stroke="none">
<path d="M434 1584 c-56 -27 -66 -62 -62 -206 3 -118 5 -128 27 -152 52 -55
147 -53 195 5 25 29 26 35 26 163 0 147 -7 167 -66 192 -43 18 -81 17 -120 -2z
m89 -55 c34 -18 37 -27 37 -140 0 -93 -2 -108 -20 -124 -27 -24 -70 -22 -92 5
-15 18 -18 41 -18 125 0 100 1 104 26 124 31 24 37 25 67 10z"/>
<path d="M875 1501 l-65 -95 0 92 0 92 -30 0 -30 0 0 -200 0 -200 30 0 30 0 0
61 c0 44 5 67 19 85 22 28 22 28 77 -73 38 -71 40 -73 77 -73 l38 0 -16 30
c-16 30 -61 110 -96 166 l-19 31 60 87 c33 49 60 89 60 90 0 0 -16 1 -35 1
-33 0 -39 -5 -100 -94z"/>
<path d="M1080 1592 c0 -2 23 -53 51 -114 51 -109 52 -112 50 -199 l-2 -89 35
0 36 0 0 87 c0 83 2 91 50 194 28 59 50 110 50 113 0 3 -13 6 -30 6 -27 0 -32
-6 -66 -77 l-36 -78 -38 79 c-35 73 -40 79 -69 80 -17 1 -31 0 -31 -2z"/>
<path d="M1474 1584 c-56 -27 -66 -62 -62 -206 3 -118 5 -128 27 -152 52 -55
147 -53 195 5 25 29 26 35 26 163 0 147 -7 167 -66 192 -43 18 -81 17 -120 -2z
m89 -55 c34 -18 37 -27 37 -140 0 -93 -2 -108 -20 -124 -27 -24 -70 -22 -92 5
-15 18 -18 41 -18 125 0 100 1 104 26 124 31 24 37 25 67 10z"/>
<path d="M1903 1586 c-33 -15 -63 -60 -63 -96 0 -15 6 -20 29 -20 23 0 30 6
35 25 12 48 72 50 96 5 14 -26 6 -41 -87 -159 -52 -67 -73 -102 -73 -123 l0
-28 115 0 115 0 0 30 0 30 -75 0 -75 0 65 83 c36 45 69 97 74 115 27 93 -68
177 -156 138z"/>
<path d="M2224 1584 c-51 -25 -59 -52 -59 -194 0 -105 3 -131 18 -154 44 -66
148 -68 187 -3 17 27 20 51 20 154 0 140 -7 165 -52 193 -39 24 -72 25 -114 4z
m85 -61 c20 -17 22 -25 19 -138 -3 -114 -4 -120 -26 -131 -28 -14 -58 -8 -66
12 -3 8 -6 67 -7 131 -1 102 1 118 17 130 24 17 38 16 63 -4z"/>
<path d="M2570 1594 c-41 -14 -60 -30 -75 -59 -23 -49 -20 -65 13 -65 21 0 30
7 38 28 15 40 50 47 81 16 32 -33 27 -46 -68 -168 -55 -70 -79 -109 -79 -128
l0 -28 115 0 115 0 0 30 0 30 -70 0 c-38 0 -70 2 -70 5 0 3 29 43 64 89 72 95
84 128 62 179 -21 50 -83 85 -126 71z"/>
<path d="M2852 1585 c-48 -21 -62 -63 -62 -193 0 -124 10 -163 48 -188 34 -22
100 -22 134 0 38 25 48 64 48 188 0 132 -13 172 -64 193 -43 18 -62 18 -104 0z
m88 -65 c18 -18 20 -33 20 -128 0 -121 -9 -144 -55 -144 -46 0 -55 23 -55 144
0 95 2 110 20 128 11 11 27 20 35 20 8 0 24 -9 35 -20z"/>
<path d="M30 1565 c0 -23 3 -25 50 -25 l50 0 0 -175 0 -175 30 0 30 0 0 175 0
175 50 0 c47 0 50 2 50 25 l0 25 -130 0 -130 0 0 -25z"/>
<path d="M759 957 c-144 -41 -233 -156 -233 -302 0 -161 116 -289 282 -311 51
-6 52 -6 52 18 0 23 -5 26 -56 31 -37 4 -73 16 -103 34 -232 144 -136 492 137
493 107 0 192 -52 238 -146 31 -64 36 -156 11 -215 -20 -49 -82 -116 -129
-140 -25 -13 -38 -26 -38 -39 0 -28 17 -25 80 13 255 152 162 547 -135 572
-35 3 -79 -1 -106 -8z"/>
<path d="M1423 952 c-93 -33 -158 -98 -194 -192 -25 -65 -24 -77 5 -82 22 -4
25 -1 31 33 4 20 19 57 35 82 93 147 288 170 410 47 42 -41 80 -116 80 -155 0
-6 -21 -21 -47 -33 -27 -12 -65 -35 -85 -52 -41 -34 -98 -139 -98 -182 0 -25
-3 -28 -33 -28 -47 0 -119 23 -157 50 -42 30 -88 94 -100 140 -7 26 -17 40
-32 43 -12 4 -24 4 -27 1 -9 -9 30 -113 58 -152 16 -22 45 -52 64 -66 45 -34
135 -66 187 -66 32 0 40 -4 40 -18 0 -88 103 -215 200 -247 166 -55 341 24
400 182 11 30 20 60 20 67 0 9 20 16 58 20 168 19 285 147 285 311 0 123 -62
223 -176 282 -72 37 -187 39 -264 4 -88 -39 -161 -132 -179 -226 -5 -30 -10
-35 -35 -35 -23 0 -30 5 -35 28 -32 152 -143 250 -292 259 -48 2 -82 -2 -119
-15z m920 -65 c239 -141 140 -498 -137 -497 -31 0 -46 4 -38 9 29 18 -25 138
-87 194 -47 42 -86 64 -138 76 -21 5 -29 9 -17 10 17 1 23 9 28 39 12 76 81
153 171 189 51 21 165 11 218 -20z m-496 -239 c-3 -8 -6 -5 -6 6 -1 11 2 17 5
13 3 -3 4 -12 1 -19z m58 -55 c10 -57 49 -126 93 -165 47 -42 72 -57 127 -74
22 -7 32 -13 23 -13 -11 -1 -18 -9 -18 -21 0 -60 -70 -154 -144 -192 -57 -29
-141 -34 -207 -13 -69 23 -139 92 -162 160 -23 67 -23 70 26 89 88 33 152 107
182 210 15 51 19 56 45 56 24 0 29 -5 35 -37z m-120 5 c-25 -86 -91 -164 -156
-187 -28 -10 -29 -9 -23 17 17 70 73 141 139 175 41 22 47 21 40 -5z m229 -10
c26 -17 58 -47 71 -67 24 -36 58 -121 49 -121 -18 0 -85 44 -116 77 -49 50
-87 143 -60 143 5 0 30 -14 56 -32z"/>
</g>
</svg>
