<?xml version="1.0" standalone="no"?>
<!DOCTYPE svg PUBLIC "-//W3C//DTD SVG 20010904//EN"
 "http://www.w3.org/TR/2001/REC-SVG-20010904/DTD/svg10.dtd">
<svg version="1.0" xmlns="http://www.w3.org/2000/svg"
 width="271.000000pt" height="186.000000pt" viewBox="0 0 271.000000 186.000000"
 preserveAspectRatio="xMidYMid meet">

<g transform="translate(0.000000,186.000000) scale(0.100000,-0.100000)"
fill="#000000" stroke="none">
<path d="M1905 1413 c-50 -113 -59 -121 -108 -99 -64 27 -88 36 -98 36 -13 0
-79 -66 -79 -80 0 -5 9 -33 20 -62 30 -80 28 -93 -27 -118 -100 -46 -93 -38
-93 -100 0 -62 -4 -58 93 -99 55 -23 58 -37 27 -119 -11 -29 -20 -57 -20 -62
0 -12 66 -80 77 -80 12 0 93 29 115 41 28 15 54 -5 74 -58 26 -72 30 -74 97
-71 64 3 62 1 93 76 23 55 44 67 87 49 91 -40 89 -39 116 -19 13 10 33 29 43
43 18 23 18 26 -3 79 -34 88 -33 91 44 128 l67 33 0 59 c0 65 0 65 -74 95 -70
29 -75 41 -42 116 27 62 27 63 8 88 -10 14 -30 33 -44 44 -25 19 -26 19 -92
-8 -80 -32 -83 -30 -122 60 l-27 65 -57 0 c-57 0 -58 0 -75 -37z m160 -281
c47 -33 85 -94 85 -140 0 -37 -28 -98 -56 -123 -92 -80 -214 -57 -268 51 -73
147 105 304 239 212z"/>
<path d="M650 1383 c-38 -96 -41 -97 -140 -57 l-63 25 -39 -39 -39 -39 25 -63
c38 -93 37 -97 -44 -133 l-71 -31 3 -59 3 -59 63 -26 c77 -32 82 -47 48 -133
l-26 -63 39 -40 40 -40 69 27 c38 15 76 25 84 22 9 -4 29 -37 46 -76 l31 -69
54 0 54 0 31 70 c17 39 38 73 46 76 9 3 46 -6 83 -21 l66 -26 41 40 40 40 -27
69 c-15 38 -25 75 -22 83 3 8 37 27 75 43 l70 28 0 58 0 57 -69 28 c-39 15
-73 35 -76 43 -3 8 7 46 22 84 l27 69 -41 40 -40 41 -63 -27 c-85 -36 -101
-30 -131 47 l-25 63 -61 3 -60 3 -23 -58z m160 -243 c57 -29 84 -73 88 -145 3
-50 0 -66 -20 -95 -13 -19 -39 -45 -58 -58 -29 -20 -45 -23 -95 -20 -72 4
-116 31 -145 88 -75 147 83 305 230 230z"/>
</g>
</svg>
